<svg width="91" height="134" fill="none" xmlns="http://www.w3.org/2000/svg"><path fill-rule="evenodd" clip-rule="evenodd" d="M23.29 7.962c.048.024 10.036 5.806 10.036 5.806V28.46a.663.663 0 0 1-.342.57l-12.44 7.316a.658.658 0 0 1-.987-.569V10.208a2.58 2.58 0 0 1 .756-1.791 2.56 2.56 0 0 1 1.788-.75c.312 0 .621.059.912.172l.277.123z" fill="url(#id-8a)"/><path fill-rule="evenodd" clip-rule="evenodd" d="M33.325 60.808v16.115l-9.995 5.713a2.52 2.52 0 0 1-1.215.315 2.57 2.57 0 0 1-1.77-.724 2.59 2.59 0 0 1-.785-1.748V70.206a2.614 2.614 0 0 1 1.455-2.349l12.31-7.05z" fill="url(#id-9b)"/><path fill-rule="evenodd" clip-rule="evenodd" d="M19.557 70.22V54.79a3.302 3.302 0 0 1 1.643-2.853l24.819-14.36a.658.658 0 0 1 .655 0 .653.653 0 0 1 .342.57v14.445a.653.653 0 0 1-.342.57l-25.662 14.73a2.596 2.596 0 0 0-1.455 2.328z" fill="url(#id-10c)"/><path fill-rule="evenodd" clip-rule="evenodd" d="M23.365 82.598L59.22 61.895a3.282 3.282 0 0 0 1.643-2.853V31.577a3.303 3.303 0 0 0-1.643-2.853L23.365 8.014a2.512 2.512 0 0 0-1.27-.343 4.083 4.083 0 0 0-.96.195L33.985.44a3.257 3.257 0 0 1 3.268 0L72.81 20.989a3.302 3.302 0 0 1 1.642 2.853v43.264a3.298 3.298 0 0 1-1.642 2.853L37.54 90.306a3.26 3.26 0 0 1-3.258 0l-13.28-7.622a2.515 2.515 0 0 0 2.363-.086z" fill="url(#id-11d)"/><path d="M16.806 104.525h1.264l5.463 12.091h-1.468l-1.4-3.172h-6.488l-1.435 3.172h-1.366l5.43-12.091zm3.33 7.702l-2.732-6.121-2.732 6.121h5.463zm5.822-7.616h1.366v10.753h6.727v1.251h-8.093v-12.004zm12.105 1.255h-4.012v-1.255h9.39v1.255H39.43v10.749h-1.366v-10.749zm8.11-1.255h1.35v12.001h-1.35v-12.001zm4.747 6.981v-6.981h1.349v6.895c0 2.589 1.366 4.047 3.654 4.047 2.202 0 3.602-1.338 3.602-3.961v-6.981h1.366v6.878c0 3.498-1.997 5.315-4.985 5.315-2.988 0-4.986-1.817-4.986-5.212zm13.233-6.981h1.365l4.354 6.553 4.354-6.553h1.366v12.001h-1.366v-9.717l-4.32 6.429h-.068l-4.37-6.416v9.707h-1.315v-12.004zM0 121.755h4.61c4.269 0 6.744 2.469 6.744 5.936v.034c0 3.463-2.51 6.035-6.812 6.035H0v-12.005zm4.661 9.056c1.98 0 3.296-1.097 3.296-3.035v-.034c0-1.92-1.315-3.034-3.296-3.034H3.295v6.103h1.366zm8.486-9.056h9.613v2.829h-6.335v1.821h5.737v2.623h-5.737v1.903h6.42v2.829h-9.698v-12.005zm10.569 10.222l1.844-2.212a6.128 6.128 0 0 0 3.876 1.44c.887 0 1.366-.308 1.366-.823v-.034c0-.497-.393-.771-2.015-1.149-2.544-.582-4.508-1.303-4.508-3.771v-.031c0-2.232 1.759-3.844 4.627-3.844 2.032 0 3.62.549 4.918 1.595l-1.657 2.348a5.982 5.982 0 0 0-3.346-1.186c-.803 0-1.195.343-1.195.771v.038c0 .549.41.789 2.049 1.162 2.732.604 4.439 1.495 4.439 3.741v.035c0 2.451-1.93 3.909-4.832 3.909a8.33 8.33 0 0 1-5.566-1.989zm12.191-10.222h3.329v12.001h-3.33v-12.001zm5.19 6.039v-.035c0-3.501 2.732-6.244 6.437-6.244a6.943 6.943 0 0 1 4.849 1.753l-1.947 2.348a4.215 4.215 0 0 0-2.885-1.135c-1.725 0-3.056 1.458-3.056 3.295v.035c0 1.937 1.349 3.326 3.244 3.326a3.372 3.372 0 0 0 1.912-.497v-1.458h-2.356v-2.434h5.498v5.4a8.06 8.06 0 0 1-5.19 1.852c-3.723 0-6.506-2.572-6.506-6.206zm13.625-6.039h3.09l4.918 6.347v-6.347h3.278v12.001h-2.902l-5.123-6.583v6.583h-3.278l.017-12.001zm13.488 0h9.613v2.829H71.49v1.821h5.736v2.623H71.49v1.903h6.42v2.829h-9.7v-12.005zm11.474 0h5.651c1.828 0 3.074.484 3.893 1.303a3.724 3.724 0 0 1 1.059 2.795v.038a3.81 3.81 0 0 1-.637 2.241 3.786 3.786 0 0 1-1.822 1.445l2.852 4.183h-3.825l-2.39-3.635h-1.452v3.635h-3.312l-.017-12.005zm5.498 5.764c1.127 0 1.776-.548 1.776-1.423v-.034c0-.943-.683-1.423-1.793-1.423h-2.169v2.88h2.186z" fill="#383838"/><defs><linearGradient id="id-8a" x1="18.714" y1="35.788" x2="30.224" y2="11.208" gradientUnits="userSpaceOnUse"><stop offset=".18" stop-color="#DAC286"/><stop offset="1" stop-color="#917C44"/></linearGradient><linearGradient id="id-9b" x1="30.747" y1="78.411" x2="23.714" y2="66.284" gradientUnits="userSpaceOnUse"><stop stop-color="#DAC286"/><stop offset="1" stop-color="#8E783E"/></linearGradient><linearGradient id="id-10c" x1="21.517" y1="71.499" x2="44.539" y2="36.196" gradientUnits="userSpaceOnUse"><stop stop-color="#DAC286"/><stop offset=".28" stop-color="#C9B276"/><stop offset="1" stop-color="#A08A51"/></linearGradient><linearGradient id="id-11d" x1="47.729" y1=".001" x2="47.729" y2="90.745" gradientUnits="userSpaceOnUse"><stop stop-color="#DAC286"/><stop offset=".22" stop-color="#CFB77B"/><stop offset=".62" stop-color="#B19A5F"/><stop offset="1" stop-color="#8E783E"/></linearGradient></defs></svg>